<svg xmlns="http://www.w3.org/2000/svg" xmlns:serif="http://www.serif.com/" xmlns:xlink="http://www.w3.org/1999/xlink" height="100%" style="fill-rule:evenodd;clip-rule:evenodd;stroke-linejoin:round;stroke-miterlimit:2;" viewBox="0 0 32 32" width="100%" xml:space="preserve"><path d="M7.95,16.027c-0.133,-0.414 -0.518,-0.696 -0.952,-0.696c-0.435,0 -0.82,0.282 -0.953,0.696l-0.957,2.99c0,0 -3.086,0 -3.086,0c-0.432,0 -0.815,0.278 -0.95,0.688c-0.135,0.41 0.009,0.861 0.356,1.117l2.51,1.852c0,0 -0.96,3.003 -0.96,3.003c-0.133,0.413 0.017,0.864 0.369,1.117c0.352,0.253 0.828,0.249 1.177,-0.008l2.494,-1.84c-0,-0 2.493,1.84 2.493,1.84c0.349,0.257 0.825,0.261 1.177,0.008c0.352,-0.253 0.502,-0.704 0.37,-1.117l-0.961,-3.003c-0,0 2.51,-1.852 2.51,-1.852c0.348,-0.256 0.491,-0.707 0.356,-1.117c-0.135,-0.41 -0.518,-0.688 -0.95,-0.688l-3.086,0c-0,0 -0.957,-2.99 -0.957,-2.99Zm-0.952,3.586l0.226,0.709c0.133,0.414 0.518,0.695 0.953,0.695l0.777,0c-0,0 -0.642,0.474 -0.642,0.474c-0.345,0.254 -0.489,0.701 -0.359,1.109l0.237,0.74c0,0 -0.599,-0.441 -0.599,-0.441c-0.353,-0.261 -0.834,-0.261 -1.187,-0l-0.599,0.441c-0,0 0.237,-0.74 0.237,-0.74c0.13,-0.408 -0.014,-0.855 -0.359,-1.109l-0.641,-0.474c-0,0 0.776,0 0.776,0c0.435,0 0.82,-0.281 0.953,-0.695l0.227,-0.709Z"></path><path d="M16.96,5.018c-0.133,-0.415 -0.518,-0.696 -0.953,-0.696c-0.435,-0 -0.821,0.281 -0.953,0.696l-0.957,3.001c0,-0 -3.083,-0 -3.083,-0c-0.432,-0 -0.815,0.276 -0.95,0.686c-0.135,0.41 0.008,0.86 0.355,1.117l2.511,1.859c-0,0 -0.962,3.015 -0.962,3.015c-0.131,0.414 0.018,0.865 0.371,1.117c0.353,0.253 0.828,0.249 1.177,-0.009l2.491,-1.844c-0,-0 2.491,1.844 2.491,1.844c0.348,0.258 0.824,0.262 1.177,0.009c0.353,-0.252 0.502,-0.703 0.371,-1.117l-0.962,-3.015c0,0 2.511,-1.859 2.511,-1.859c0.347,-0.257 0.49,-0.707 0.355,-1.117c-0.136,-0.41 -0.518,-0.686 -0.95,-0.686l-3.084,-0c0,-0 -0.956,-3.001 -0.956,-3.001Zm-0.953,3.596l0.226,0.708c0.132,0.415 0.517,0.697 0.953,0.697l0.783,-0c-0,-0 -0.65,0.481 -0.65,0.481c-0.344,0.254 -0.488,0.699 -0.358,1.107l0.239,0.747c-0,0 -0.598,-0.442 -0.598,-0.442c-0.354,-0.262 -0.837,-0.262 -1.19,-0l-0.598,0.442c0,0 0.239,-0.747 0.239,-0.747c0.13,-0.408 -0.014,-0.853 -0.358,-1.107l-0.65,-0.481c0,-0 0.783,-0 0.783,-0c0.436,-0 0.821,-0.282 0.953,-0.697l0.226,-0.708Z"></path><path d="M25.933,16.026c-0.132,-0.414 -0.517,-0.695 -0.952,-0.695c-0.434,0 -0.819,0.281 -0.952,0.695l-0.961,2.991c0,0 -3.102,0 -3.102,0c-0.433,0 -0.816,0.278 -0.951,0.689c-0.134,0.41 0.01,0.861 0.358,1.117l2.52,1.852c0,-0 -0.964,3 -0.964,3c-0.132,0.413 0.016,0.864 0.368,1.118c0.352,0.253 0.827,0.251 1.177,-0.006l2.507,-1.843c0,0 2.508,1.843 2.508,1.843c0.35,0.257 0.825,0.259 1.177,0.006c0.351,-0.254 0.5,-0.705 0.367,-1.118l-0.964,-3c0,-0 2.52,-1.852 2.52,-1.852c0.349,-0.256 0.493,-0.707 0.358,-1.117c-0.134,-0.411 -0.518,-0.689 -0.95,-0.689l-3.102,0c-0,0 -0.962,-2.991 -0.962,-2.991Zm-0.952,3.575l0.232,0.722c0.133,0.414 0.518,0.694 0.952,0.694l0.783,0c-0,0 -0.643,0.473 -0.643,0.473c-0.346,0.254 -0.491,0.702 -0.36,1.111l0.24,0.745c-0,0 -0.611,-0.449 -0.611,-0.449c-0.353,-0.258 -0.832,-0.258 -1.185,0l-0.611,0.449c0,0 0.24,-0.745 0.24,-0.745c0.131,-0.409 -0.014,-0.857 -0.36,-1.111l-0.643,-0.473c0,0 0.782,0 0.782,0c0.435,0 0.82,-0.28 0.952,-0.694l0.232,-0.722Z"></path><g id="Icon"></g></svg>